REM DIRINDEX 1\2,1\3,1\4,1\5
REM DIRNAME folder01,folder02,folder03,folder04,folder05
TITLE ""
FILE "1Q_t_1089-1098.mp3" MP3
  TRACK 01 AUDIO
    TITLE "3:cjc004_4171"
    INDEX 01 00:00:00
  TRACK 02 AUDIO
    TITLE "0:"
    INDEX 01 00:01:26
  TRACK 03 AUDIO
    TITLE "4:cjc004_4172"
    INDEX 01 00:01:60
  TRACK 04 AUDIO
    TITLE "0:"
    INDEX 01 00:03:29
  TRACK 05 AUDIO
    TITLE "5:cjc004_4173"
    INDEX 01 00:03:55
  TRACK 06 AUDIO
    TITLE "0:"
    INDEX 01 00:07:39
  TRACK 07 AUDIO
    TITLE "3:cjc004_4174"
    INDEX 01 00:08:17
  TRACK 08 AUDIO
    TITLE "0:"
    INDEX 01 00:09:38
  TRACK 09 AUDIO
    TITLE "4:cjc004_4175"
    INDEX 01 00:09:65
  TRACK 10 AUDIO
    TITLE "0:"
    INDEX 01 00:11:74
  TRACK 11 AUDIO
    TITLE "5:cjc004_4176"
    INDEX 01 00:12:22
  TRACK 12 AUDIO
    TITLE "0:"
    INDEX 01 00:17:08
  TRACK 13 AUDIO
    TITLE "3:cjc004_4177"
    INDEX 01 00:18:01
  TRACK 14 AUDIO
    TITLE "0:"
    INDEX 01 00:19:11
  TRACK 15 AUDIO
    TITLE "4:cjc004_4178"
    INDEX 01 00:19:36
  TRACK 16 AUDIO
    TITLE "0:"
    INDEX 01 00:20:51
  TRACK 17 AUDIO
    TITLE "5:cjc004_4179"
    INDEX 01 00:20:73
  TRACK 18 AUDIO
    TITLE "0:"
    INDEX 01 00:25:29
  TRACK 19 AUDIO
    TITLE "3:cjc004_4180"
    INDEX 01 00:26:03
  TRACK 20 AUDIO
    TITLE "0:"
    INDEX 01 00:27:02
  TRACK 21 AUDIO
    TITLE "4:cjc004_4181"
    INDEX 01 00:27:32
  TRACK 22 AUDIO
    TITLE "0:"
    INDEX 01 00:28:66
  TRACK 23 AUDIO
    TITLE "5:cjc004_4182"
    INDEX 01 00:29:23
  TRACK 24 AUDIO
    TITLE "0:"
    INDEX 01 00:34:26
  TRACK 25 AUDIO
    TITLE "3:cjc004_4183"
    INDEX 01 00:35:12
  TRACK 26 AUDIO
    TITLE "0:"
    INDEX 01 00:36:50
  TRACK 27 AUDIO
    TITLE "4:cjc004_4184"
    INDEX 01 00:37:07
  TRACK 28 AUDIO
    TITLE "0:"
    INDEX 01 00:38:08
  TRACK 29 AUDIO
    TITLE "5:cjc004_4185"
    INDEX 01 00:38:35
  TRACK 30 AUDIO
    TITLE "0:"
    INDEX 01 00:42:33
  TRACK 31 AUDIO
    TITLE "3:cjc004_4186"
    INDEX 01 00:43:09
  TRACK 32 AUDIO
    TITLE "0:"
    INDEX 01 00:44:30
  TRACK 33 AUDIO
    TITLE "4:cjc004_4187"
    INDEX 01 00:44:58
  TRACK 34 AUDIO
    TITLE "0:"
    INDEX 01 00:46:15
  TRACK 35 AUDIO
    TITLE "5:cjc004_4188"
    INDEX 01 00:46:41
  TRACK 36 AUDIO
    TITLE "0:"
    INDEX 01 00:51:15
  TRACK 37 AUDIO
    TITLE "3:cjc004_4189"
    INDEX 01 00:51:65
  TRACK 38 AUDIO
    TITLE "0:"
    INDEX 01 00:53:17
  TRACK 39 AUDIO
    TITLE "4:cjc004_4190"
    INDEX 01 00:53:47
  TRACK 40 AUDIO
    TITLE "0:"
    INDEX 01 00:55:57
  TRACK 41 AUDIO
    TITLE "5:cjc004_4191"
    INDEX 01 00:56:12
  TRACK 42 AUDIO
    TITLE "0:"
    INDEX 01 01:00:23
  TRACK 43 AUDIO
    TITLE "3:cjc004_4192"
    INDEX 01 01:00:74
  TRACK 44 AUDIO
    TITLE "0:"
    INDEX 01 01:02:08
  TRACK 45 AUDIO
    TITLE "4:cjc004_4193"
    INDEX 01 01:02:42
  TRACK 46 AUDIO
    TITLE "0:"
    INDEX 01 01:03:41
  TRACK 47 AUDIO
    TITLE "5:cjc004_4194"
    INDEX 01 01:03:69
  TRACK 48 AUDIO
    TITLE "0:"
    INDEX 01 01:09:05
  TRACK 49 AUDIO
    TITLE "3:cjc004_4195"
    INDEX 01 01:09:54
  TRACK 50 AUDIO
    TITLE "0:"
    INDEX 01 01:11:02
  TRACK 51 AUDIO
    TITLE "4:cjc004_4196"
    INDEX 01 01:11:27
  TRACK 52 AUDIO
    TITLE "0:"
    INDEX 01 01:12:71
  TRACK 53 AUDIO
    TITLE "5:cjc004_4197"
    INDEX 01 01:13:22
  TRACK 54 AUDIO
    TITLE "0:"
    INDEX 01 01:17:59
  TRACK 55 AUDIO
    TITLE "3:cjc004_4198"
    INDEX 01 01:18:31
  TRACK 56 AUDIO
    TITLE "0:"
    INDEX 01 01:19:60
  TRACK 57 AUDIO
    TITLE "4:cjc004_4199"
    INDEX 01 01:20:14
  TRACK 58 AUDIO
    TITLE "0:"
    INDEX 01 01:21:18
  TRACK 59 AUDIO
    TITLE "5:cjc004_4200"
    INDEX 01 01:21:45
  TRACK 60 AUDIO
    TITLE "0:"
    INDEX 01 01:26:09
